# Blender v2.79 (sub 0) OBJ File: ''
# www.blender.org
mtllib flagblue.mtl
o Cylinder.001
v 0.490393 13.521679 -0.097543
v 0.500000 0.178581 0.000000
v 0.490393 0.178581 -0.097545
v 0.415735 13.521679 0.277787
v 0.353553 0.178581 0.353553
v 0.415735 0.178581 0.277785
v 0.353553 13.521679 0.353555
v 0.277785 0.178581 0.415735
v -0.269276 13.366497 -0.228974
v -0.269276 10.203357 -3.392113
v -0.269276 10.203356 -0.228974
v -0.269276 13.366498 -3.392113
v 0.269276 10.203357 -3.392113
v 0.269276 13.366498 -3.392113
v 0.269276 10.203356 -0.228974
v 0.269276 13.366497 -0.228974
v 0.500000 13.521679 0.000002
v 0.277785 13.521679 0.415737
v 0.000000 13.521679 -0.499998
v 0.097545 0.178581 -0.490393
v 0.000000 0.178581 -0.500000
v 0.097545 13.521679 -0.490391
v 0.191342 0.178581 -0.461940
v 0.191342 13.521679 -0.461938
v 0.277785 0.178581 -0.415735
v 0.277785 13.521679 -0.415733
v 0.353553 0.178581 -0.353553
v 0.353553 13.521679 -0.353551
v 0.415735 0.178581 -0.277785
v 0.415735 13.521679 -0.277783
v 0.461940 0.178581 -0.191342
v 0.461940 13.521679 -0.191340
v 0.490393 0.178581 0.097545
v 0.490393 13.521679 0.097547
v 0.461940 0.178581 0.191342
v 0.461940 13.521679 0.191344
v 0.191342 0.178581 0.461940
v 0.191342 13.521679 0.461942
v 0.097545 0.178581 0.490393
v 0.097545 13.521679 0.490395
v 0.000000 0.178581 0.500000
v 0.000000 13.521679 0.500002
v -0.097545 0.178581 0.490393
v -0.097545 13.521679 0.490395
v -0.191342 0.178581 0.461940
v -0.191342 13.521679 0.461942
v -0.277785 0.178581 0.415735
v -0.277785 13.521679 0.415737
v -0.353554 0.178581 0.353553
v -0.353554 13.521679 0.353555
v -0.415735 0.178581 0.277785
v -0.415735 13.521679 0.277787
v -0.461940 0.178581 0.191341
v -0.461940 13.521679 0.191343
v -0.490393 0.178581 0.097545
v -0.490393 13.521679 0.097547
v -0.500000 0.178581 0.000000
v -0.500000 13.521679 0.000002
v -0.490393 0.178581 -0.097546
v -0.490393 13.521679 -0.097544
v -0.461940 0.178581 -0.191342
v -0.461940 13.521679 -0.191340
v -0.415734 0.178581 -0.277786
v -0.415734 13.521679 -0.277784
v -0.353553 0.178581 -0.353554
v -0.353553 13.521679 -0.353552
v -0.277785 0.178581 -0.415735
v -0.277785 13.521679 -0.415733
v -0.191341 0.178581 -0.461940
v -0.191341 13.521679 -0.461938
v -0.097544 0.178581 -0.490393
v -0.097544 13.521679 -0.490391
vt 0.921313 0.632283
vt 0.891332 0.316142
vt 0.921313 0.316142
vt 0.805952 0.632283
vt 0.782664 0.316142
vt 0.805952 0.316142
vt 0.782664 0.000000
vt 0.805952 0.316142
vt 0.709801 1.000000
vt 0.782664 0.000000
vt 0.782664 1.000000
vt 0.621257 0.799497
vt 0.548394 0.969194
vt 0.548394 0.799497
vt 0.636937 1.000000
vt 0.709801 0.000000
vt 0.709801 1.000000
vt 0.548394 0.799497
vt 0.621257 0.629239
vt 0.621257 0.799497
vt 0.165529 1.000000
vt 0.331058 0.000000
vt 0.331058 1.000000
vt 0.165529 0.000000
vt 0.000000 1.000000
vt 0.000000 0.000000
vt 0.891332 0.632283
vt 0.782664 0.632283
vt 0.805952 0.000000
vt 0.709801 0.000000
vt 0.621257 0.969194
vt 0.636938 0.000000
vt 0.548394 0.629239
vt 0.165529 0.000000
vt 0.165529 1.000000
vt 0.894628 0.632283
vt 0.924271 0.948425
vt 0.894628 0.948425
vt 0.924271 0.632283
vt 0.952295 0.948425
vt 0.952294 0.632283
vt 0.977623 0.948425
vt 0.977623 0.632283
vt 0.999282 0.948425
vt 1.000000 0.632283
vt 0.976712 0.316142
vt 1.000000 0.316142
vt 0.976712 0.632283
vt 0.950143 0.316142
vt 0.950143 0.632283
vt 0.861351 0.316142
vt 0.861351 0.632283
vt 0.832521 0.316142
vt 0.832521 0.632283
vt 0.832521 0.316142
vt 0.832521 0.000000
vt 0.861351 0.316142
vt 0.861351 0.000000
vt 0.891332 0.316142
vt 0.891332 0.000000
vt 0.921314 0.316142
vt 0.921313 0.000000
vt 0.950143 0.316142
vt 0.950143 0.000000
vt 0.976712 0.316142
vt 0.976712 0.000000
vt 1.000000 0.316142
vt 0.331058 0.629239
vt 0.354346 0.945380
vt 0.331058 0.945380
vt 0.354346 0.629239
vt 0.380915 0.945380
vt 0.380915 0.629239
vt 0.409745 0.945380
vt 0.409745 0.629239
vt 0.439726 0.945380
vt 0.439726 0.629239
vt 0.469708 0.945380
vt 0.469708 0.629239
vt 0.498537 0.945380
vt 0.498537 0.629239
vt 0.525106 0.945380
vt 0.525106 0.629239
vt 0.548394 0.945380
vt 0.782664 0.632283
vt 0.807427 0.948425
vt 0.782664 0.948425
vt 0.807427 0.632283
vt 0.835062 0.948425
vt 0.331058 0.172803
vt 0.468935 0.000000
vt 0.636937 0.141816
vt 0.835062 0.632283
vt 0.864506 0.948425
vt 0.864506 0.632283
vt 0.365202 0.572208
vt 0.386504 0.349739
vt 0.602794 0.371650
vt 0.999282 0.632283
vt 1.000000 0.000000
vt 0.548394 0.629239
vt 0.499061 0.314619
vt 0.468935 0.314619
vt 0.439387 0.308574
vt 0.411554 0.296716
vt 0.386505 0.279500
vt 0.365202 0.257589
vt 0.348465 0.231824
vt 0.336936 0.203195
vt 0.331058 0.141816
vt 0.336935 0.111424
vt 0.348464 0.082796
vt 0.365202 0.057031
vt 0.386504 0.035119
vt 0.411554 0.017904
vt 0.439387 0.006045
vt 0.499061 0.000000
vt 0.528609 0.006045
vt 0.556442 0.017904
vt 0.581491 0.035119
vt 0.602794 0.057031
vt 0.619531 0.082796
vt 0.631060 0.111424
vt 0.636937 0.172803
vt 0.631060 0.203195
vt 0.619531 0.231824
vt 0.602794 0.257589
vt 0.581491 0.279500
vt 0.556442 0.296716
vt 0.528609 0.308574
vt 0.581491 0.594119
vt 0.556442 0.611335
vt 0.528609 0.623193
vt 0.499061 0.629239
vt 0.468935 0.629239
vt 0.439387 0.623193
vt 0.411554 0.611335
vt 0.386505 0.594119
vt 0.348465 0.546443
vt 0.336936 0.517815
vt 0.331058 0.487423
vt 0.331058 0.456435
vt 0.336935 0.426044
vt 0.348464 0.397415
vt 0.365202 0.371650
vt 0.411554 0.332523
vt 0.439387 0.320665
vt 0.468934 0.314619
vt 0.499061 0.314619
vt 0.528609 0.320665
vt 0.556442 0.332523
vt 0.581491 0.349739
vt 0.619531 0.397415
vt 0.631060 0.426043
vt 0.636937 0.456435
vt 0.636937 0.487423
vt 0.631060 0.517814
vt 0.619531 0.546443
vt 0.602794 0.572208
vn 0.9952 0.0000 -0.0980
vn 0.7730 -0.0000 0.6344
vn 0.6344 -0.0000 0.7730
vn -1.0000 -0.0000 0.0000
vn 0.0000 0.0000 -1.0000
vn 1.0000 0.0000 0.0000
vn 0.0000 -0.0000 1.0000
vn 0.0000 -1.0000 -0.0000
vn 0.0000 1.0000 0.0000
vn 0.0980 0.0000 -0.9952
vn 0.2903 0.0000 -0.9569
vn 0.4714 0.0000 -0.8819
vn 0.6344 0.0000 -0.7730
vn 0.7730 0.0000 -0.6344
vn 0.8819 0.0000 -0.4714
vn 0.9569 0.0000 -0.2903
vn 0.9952 -0.0000 0.0980
vn 0.9569 -0.0000 0.2903
vn 0.8819 -0.0000 0.4714
vn 0.4714 -0.0000 0.8819
vn 0.2903 -0.0000 0.9569
vn 0.0980 -0.0000 0.9952
vn -0.0980 -0.0000 0.9952
vn -0.2903 -0.0000 0.9569
vn -0.4714 -0.0000 0.8819
vn -0.6344 -0.0000 0.7730
vn -0.7730 -0.0000 0.6344
vn -0.8819 -0.0000 0.4714
vn -0.9569 -0.0000 0.2903
vn -0.9952 -0.0000 0.0980
vn -0.9952 0.0000 -0.0980
vn -0.9569 0.0000 -0.2903
vn -0.8819 0.0000 -0.4714
vn -0.7730 0.0000 -0.6344
vn -0.6344 0.0000 -0.7730
vn -0.4714 0.0000 -0.8819
vn -0.2903 0.0000 -0.9569
vn -0.0980 0.0000 -0.9952
vn 0.0000 1.0000 0.0001
vn 0.0000 1.0000 -0.0001
vn 0.0000 1.0000 0.0002
usemtl Material.001
s 1
f 1/1/1 2/2/1 3/3/1
f 4/4/2 5/5/2 6/6/2
f 7/7/3 8/8/3 5/5/3
f 9/9/4 10/10/4 11/11/4
f 12/12/5 13/13/5 10/14/5
f 14/15/6 15/16/6 13/17/6
f 16/18/7 11/19/7 15/20/7
f 13/21/8 11/22/8 10/23/8
f 12/24/9 16/25/9 14/26/9
f 1/1/1 17/27/1 2/2/1
f 4/4/2 7/28/2 5/5/2
f 7/7/3 18/29/3 8/8/3
f 9/9/4 12/30/4 10/10/4
f 12/12/5 14/31/5 13/13/5
f 14/15/6 16/32/6 15/16/6
f 16/18/7 9/33/7 11/19/7
f 13/21/8 15/34/8 11/22/8
f 12/24/9 9/35/9 16/25/9
usemtl None
f 19/36/10 20/37/10 21/38/10
f 22/39/11 23/40/11 20/37/11
f 24/41/12 25/42/12 23/40/12
f 26/43/13 27/44/13 25/42/13
f 28/45/14 29/46/14 27/47/14
f 30/48/15 31/49/15 29/46/15
f 32/50/16 3/3/16 31/49/16
f 17/27/17 33/51/17 2/2/17
f 34/52/18 35/53/18 33/51/18
f 36/54/19 6/6/19 35/53/19
f 18/29/20 37/55/20 8/8/20
f 38/56/21 39/57/21 37/55/21
f 40/58/22 41/59/22 39/57/22
f 42/60/23 43/61/23 41/59/23
f 44/62/24 45/63/24 43/61/24
f 46/64/25 47/65/25 45/63/25
f 48/66/26 49/67/26 47/65/26
f 50/68/27 51/69/27 49/70/27
f 52/71/28 53/72/28 51/69/28
f 54/73/29 55/74/29 53/72/29
f 56/75/30 57/76/30 55/74/30
f 58/77/31 59/78/31 57/76/31
f 60/79/32 61/80/32 59/78/32
f 62/81/33 63/82/33 61/80/33
f 64/83/34 65/84/34 63/82/34
f 66/85/35 67/86/35 65/87/35
f 68/88/36 69/89/36 67/86/36
f 62/90/9 46/91/9 36/92/9
f 70/93/37 71/94/37 69/89/37
f 72/95/38 21/38/38 71/94/38
f 3/96/8 39/97/8 55/98/8
f 19/36/10 22/39/10 20/37/10
f 22/39/11 24/41/11 23/40/11
f 24/41/12 26/43/12 25/42/12
f 26/43/13 28/99/13 27/44/13
f 28/45/14 30/48/14 29/46/14
f 30/48/15 32/50/15 31/49/15
f 32/50/16 1/1/16 3/3/16
f 17/27/17 34/52/17 33/51/17
f 34/52/18 36/54/18 35/53/18
f 36/54/19 4/4/19 6/6/19
f 18/29/20 38/56/20 37/55/20
f 38/56/21 40/58/21 39/57/21
f 40/58/22 42/60/22 41/59/22
f 42/60/23 44/62/23 43/61/23
f 44/62/24 46/64/24 45/63/24
f 46/64/25 48/66/25 47/65/25
f 48/66/26 50/100/26 49/67/26
f 50/68/27 52/71/27 51/69/27
f 52/71/28 54/73/28 53/72/28
f 54/73/29 56/75/29 55/74/29
f 56/75/30 58/77/30 57/76/30
f 58/77/31 60/79/31 59/78/31
f 60/79/32 62/81/32 61/80/32
f 62/81/33 64/83/33 63/82/33
f 64/83/34 66/101/34 65/84/34
f 66/85/35 68/88/35 67/86/35
f 68/88/36 70/93/36 69/89/36
f 24/102/9 22/103/9 19/104/9
f 19/104/9 72/105/39 24/102/9
f 72/105/39 70/106/9 24/102/9
f 70/106/9 68/107/40 66/108/9
f 66/108/9 64/109/9 62/90/9
f 62/90/9 60/110/9 58/111/9
f 58/111/9 56/112/9 62/90/9
f 56/112/9 54/113/9 62/90/9
f 54/113/9 52/114/9 46/91/9
f 52/114/9 50/115/9 46/91/9
f 50/115/9 48/116/41 46/91/9
f 46/91/9 44/117/9 42/118/9
f 42/118/9 40/119/9 38/120/9
f 38/120/9 18/121/9 7/122/9
f 7/122/9 4/123/9 36/92/9
f 36/92/9 34/124/9 17/125/9
f 17/125/9 1/126/9 36/92/9
f 1/126/9 32/127/9 36/92/9
f 32/127/9 30/128/9 28/129/9
f 28/129/9 26/130/9 24/102/9
f 70/106/9 66/108/9 24/102/9
f 66/108/9 62/90/9 24/102/9
f 46/91/9 42/118/9 36/92/9
f 42/118/9 38/120/9 36/92/9
f 38/120/9 7/122/9 36/92/9
f 32/127/9 28/129/9 36/92/9
f 28/129/9 24/102/9 36/92/9
f 62/90/9 54/113/9 46/91/9
f 24/102/9 62/90/9 36/92/9
f 70/93/37 72/95/37 71/94/37
f 72/95/38 19/36/38 21/38/38
f 71/131/8 21/132/8 20/133/8
f 20/133/8 23/134/8 25/135/8
f 25/135/8 27/136/8 29/137/8
f 29/137/8 31/138/8 25/135/8
f 31/138/8 3/96/8 25/135/8
f 3/96/8 2/139/8 33/140/8
f 33/140/8 35/141/8 3/96/8
f 35/141/8 6/142/8 3/96/8
f 6/142/8 5/143/8 39/97/8
f 5/143/8 8/144/8 39/97/8
f 8/144/8 37/145/8 39/97/8
f 39/97/8 41/146/8 43/147/8
f 43/147/8 45/148/8 47/149/8
f 47/149/8 49/150/8 51/151/8
f 51/151/8 53/152/8 55/98/8
f 55/98/8 57/153/8 59/154/8
f 59/154/8 61/155/8 63/156/8
f 63/156/8 65/157/8 71/131/8
f 65/157/8 67/158/8 71/131/8
f 67/158/8 69/159/8 71/131/8
f 71/131/8 20/133/8 25/135/8
f 39/97/8 43/147/8 55/98/8
f 43/147/8 47/149/8 55/98/8
f 47/149/8 51/151/8 55/98/8
f 55/98/8 59/154/8 71/131/8
f 59/154/8 63/156/8 71/131/8
f 71/131/8 25/135/8 3/96/8
f 3/96/8 6/142/8 39/97/8
f 71/131/8 3/96/8 55/98/8
