# Blender v2.79 (sub 0) OBJ File: 'bunker.blend'
# www.blender.org
mtllib bunker.mtl
o Cube
v 7.459762 1.958111 4.765749
v 7.459762 4.652802 4.765749
v 7.459762 6.657442 4.765749
v 6.019289 8.039154 4.699198
v 4.507823 9.027166 4.699198
v 1.889694 9.527962 4.697520
v -7.540228 9.527962 4.697520
v 7.459762 6.657442 9.461875
v 7.459762 1.958108 9.461875
v 7.459762 4.652802 9.461875
v 6.174413 6.665723 10.830003
v 6.435947 1.966388 10.830003
v 6.435947 4.661081 10.830003
v 6.019289 8.039154 9.335711
v 4.507823 9.027166 9.335711
v 1.889694 9.527962 9.334033
v -7.540228 9.527962 9.334033
v 4.507823 7.443745 11.531911
v 1.889694 7.944541 11.530233
v -7.540228 7.944541 11.530233
v -7.540228 5.096066 11.530233
v 4.507823 4.817349 11.531911
v 1.889694 4.938690 11.530233
v 4.507823 2.101966 11.531911
v 1.889694 2.225219 11.530233
v -7.540228 2.355348 11.530233
v 7.459762 0.489347 4.811242
v 7.459762 0.489344 9.461875
v 6.435947 0.497624 10.830003
v 4.507823 0.633201 11.531911
v 1.889694 0.756455 11.530233
v -7.540228 0.886584 11.530233
v 6.435955 1.958111 8.253238
v 6.435955 0.489354 4.862249
v 6.435947 4.652798 8.253238
v 6.435955 1.958111 9.422305
v 6.435955 0.489354 9.422305
v 6.435947 4.652802 9.461875
v -7.540228 5.301252 9.334033
v -7.540228 2.458765 9.334033
v -7.540228 0.886584 9.334033
v -7.540228 5.301252 4.830556
v -7.540228 2.425014 4.830556
v -7.540228 0.855658 4.830556
v -7.540228 5.301252 3.420172
v -7.540228 2.425014 3.420172
v -7.540228 0.855653 3.420172
v -7.540228 9.527962 3.420172
v -7.540228 5.314008 1.038591
v -7.540228 2.425014 1.027243
v -7.540228 0.855653 1.038591
v 4.511754 0.489354 9.422305
v 1.817175 0.631548 9.422305
v -6.716969 5.314008 1.038591
v -6.716969 2.425014 1.027243
v -6.716969 0.855653 1.038591
v -6.716969 5.301252 9.328499
v -6.716969 2.425014 9.317151
v -6.716969 0.855653 9.328499
v 6.435947 4.652798 4.765755
v 6.435955 1.958111 4.765755
v 7.459762 -0.076798 4.811242
v 7.459762 -0.076801 9.461875
v 6.435947 -0.068521 10.830003
v 1.889694 0.190311 11.530233
v 4.507823 0.190313 11.531911
v -7.540228 0.320439 11.530233
v 6.435955 -0.076791 4.862249
v 6.435955 -0.076791 9.422305
v -7.540228 0.320439 9.334033
v -7.540228 0.289509 1.038591
v 4.511754 -0.031053 9.422305
v 1.817175 0.065404 9.422305
v -6.716969 0.289509 9.328499
v -6.716969 0.289509 1.038591
v 7.459762 1.958111 0.000001
v 7.459762 4.652802 0.000001
v 7.459762 1.958111 -4.765748
v 7.459762 4.652802 -4.765748
v 7.459762 6.657450 0.000001
v 7.459762 6.657442 -4.765748
v 6.019289 8.039154 0.000001
v 6.019289 8.039154 -4.699197
v 4.507823 9.027166 0.000001
v 4.507823 9.027166 -4.699197
v 1.889694 9.527962 0.000001
v 1.889694 9.527962 -4.697519
v -7.540228 9.527962 0.000001
v -7.540228 9.527962 -4.697519
v 7.459762 6.657442 -9.461875
v 7.459762 1.958108 -9.461875
v 7.459762 4.652802 -9.461875
v 6.174413 6.665723 -10.830001
v 6.435947 1.966388 -10.830001
v 6.435947 4.661081 -10.830001
v 6.019289 8.039154 -9.335711
v 4.507823 9.027166 -9.335711
v 1.889694 9.527962 -9.334034
v -7.540228 9.527962 -9.334034
v 4.507823 7.443745 -11.531911
v 1.889694 7.944541 -11.530234
v -7.540228 7.944541 -11.530234
v -7.540228 5.096066 -11.530234
v 4.507823 4.817349 -11.531911
v 1.889694 4.938690 -11.530234
v 4.507823 2.101966 -11.531911
v 1.889694 2.225219 -11.530234
v -7.540228 2.355348 -11.530234
v 7.459762 0.489347 0.000001
v 7.459762 0.489347 -4.811241
v 7.459762 0.489344 -9.461875
v 6.435947 0.497624 -10.830001
v 4.507823 0.633201 -11.531911
v 1.889694 0.756455 -11.530234
v -7.540228 0.886584 -11.530234
v 6.435955 1.958111 0.000001
v 6.435955 1.958111 -8.253237
v 6.435955 0.489354 0.000001
v 6.435955 0.489354 -4.862248
v 6.435947 4.652798 0.000001
v 6.435947 4.652798 -8.253237
v 6.435955 1.958111 -9.422304
v 6.435955 0.489354 -9.422304
v 6.435947 4.652802 -9.461875
v -7.540228 5.301252 -9.334034
v -7.540228 2.458765 -9.334034
v -7.540228 0.886584 -9.334034
v -7.540228 5.301252 -4.830555
v -7.540228 2.425014 -4.830555
v -7.540228 0.855658 -4.830555
v -7.540228 5.301252 -3.420170
v -7.540228 2.425014 -3.420170
v -7.540228 0.855653 -3.420170
v -7.540228 9.527962 -3.420171
v -7.540228 5.314008 0.000001
v -7.540228 5.314008 -1.038590
v -7.540228 2.425014 -1.027242
v -7.540228 0.855653 -1.038590
v 4.511754 0.489354 -9.422304
v 1.817175 0.631548 -9.422304
v -6.716969 5.314008 0.000001
v -6.716969 5.314008 -1.038590
v -6.716969 2.425014 -1.027242
v -6.716969 0.855653 -1.038590
v -6.716969 5.301252 -9.328499
v -6.716969 2.425014 -9.317149
v -6.716969 0.855653 -9.328499
v 6.435947 4.652798 -4.765754
v 6.435955 1.958111 -4.765754
v -6.716969 0.855653 0.000001
v 7.459762 -0.076798 -4.811241
v 7.459762 -0.076798 0.000001
v 7.459762 -0.076801 -9.461875
v 6.435947 -0.068521 -10.830001
v 1.889694 0.190311 -11.530234
v 4.507823 0.190313 -11.531911
v -7.540228 0.320439 -11.530234
v 6.435955 -0.076791 -4.862248
v 6.435955 -0.076791 0.000001
v 6.435955 -0.076791 -9.422304
v -7.540228 0.320439 -9.334034
v -7.540228 0.289509 -1.038590
v 4.511754 -0.032621 -9.422304
v 1.817175 0.065404 -9.422304
v -6.716969 0.289509 -9.328499
v -6.716969 0.289509 -1.038590
v -6.716969 0.289509 0.000001
vt 0.722090 0.274089
vt 0.684694 0.230489
vt 0.719482 0.222292
vt 0.696111 0.282527
vt 0.654567 0.239338
vt 0.668554 0.291332
vt 0.627905 0.246290
vt 0.642498 0.299646
vt 0.591002 0.255422
vt 0.605012 0.311691
vt 0.454457 0.364112
vt 0.443967 0.291711
vt 0.668357 0.162729
vt 0.650612 0.179294
vt 0.762340 0.193074
vt 0.695889 0.130785
vt 0.648278 0.149334
vt 0.669995 0.116348
vt 0.445057 0.282807
vt 0.582285 0.202085
vt 0.612408 0.196650
vt 0.631291 0.190094
vt 0.633182 0.168414
vt 0.457761 0.219098
vt 0.581400 0.172348
vt 0.611613 0.169281
vt 0.583459 0.135506
vt 0.620284 0.140868
vt 0.647257 0.149744
vt 0.587363 0.095179
vt 0.633770 0.104040
vt 0.667759 0.116666
vt 0.440552 0.164527
vt 0.423753 0.128175
vt 0.415440 0.109210
vt 0.590956 0.069875
vt 0.643436 0.080727
vt 0.766897 0.189027
vt 0.938615 0.211937
vt 0.881779 0.229648
vt 0.778429 0.151206
vt 0.682229 0.095728
vt 0.709543 0.108432
vt 0.762023 0.230359
vt 0.775391 0.254748
vt 0.762021 0.232843
vt 0.732745 0.062107
vt 0.670846 0.031747
vt 0.674768 0.022734
vt 0.195410 0.818059
vt 0.063112 0.631296
vt 0.195410 0.631286
vt 0.000000 0.000000
vt 0.749839 0.234597
vt 0.753206 0.235364
vt 0.811483 0.323522
vt 0.414857 0.187209
vt 0.455876 0.191761
vt 0.386643 0.144671
vt 0.373474 0.108878
vt 0.366246 0.258300
vt 0.314889 0.223178
vt 0.281584 0.199971
vt 0.000112 0.286395
vt 0.017475 0.121669
vt 0.007550 0.121222
vt 0.688842 0.088889
vt 0.715523 0.098882
vt 0.296926 0.254353
vt 0.263370 0.240651
vt 0.346270 0.289179
vt 0.317192 0.338862
vt 0.254512 0.289104
vt 0.274185 0.298576
vt 0.956720 0.127257
vt 0.774986 0.107102
vt 0.767598 0.090511
vt 0.776819 0.135045
vt 0.943633 0.188261
vt 0.266332 0.308793
vt 0.250770 0.300440
vt 0.332381 0.395096
vt 0.274922 0.335956
vt 0.238378 0.311196
vt 0.243795 0.304503
vt 0.721163 0.078854
vt 0.745445 0.081932
vt 0.000112 0.633762
vt 0.061220 0.818059
vt 0.002216 0.820365
vt 0.734712 0.269859
vt 0.739067 0.230782
vt 0.769071 0.221119
vt 0.275093 0.134332
vt 0.952441 0.149278
vt 0.593624 0.059876
vt 0.593151 0.014489
vt 0.250316 0.289364
vt 0.248080 0.133721
vt 0.263810 0.134178
vt 0.412454 0.108244
vt 0.242737 0.294466
vt 0.646817 0.074655
vt 0.018254 0.111766
vt 0.248843 0.123451
vt 0.593129 0.000112
vt 0.388118 0.081166
vt 0.383632 0.068614
vt 0.240697 0.297230
vt 0.241655 0.302199
vt 0.240567 0.307545
vt 0.717539 0.332169
vt 0.751934 0.319105
vt 0.687107 0.341971
vt 0.660874 0.351311
vt 0.625186 0.364466
vt 0.469860 0.397989
vt 0.741249 0.398582
vt 0.717132 0.394419
vt 0.805366 0.322374
vt 0.731635 0.420942
vt 0.768015 0.436987
vt 0.782095 0.410760
vt 0.647322 0.413113
vt 0.490874 0.420411
vt 0.694909 0.396058
vt 0.708450 0.413192
vt 0.662887 0.438294
vt 0.534955 0.466191
vt 0.675458 0.401033
vt 0.689856 0.424317
vt 0.684661 0.467934
vt 0.712681 0.443383
vt 0.709788 0.499632
vt 0.730547 0.421165
vt 0.744089 0.467016
vt 0.549400 0.520548
vt 0.554631 0.559773
vt 0.557664 0.580039
vt 0.726500 0.518957
vt 0.841096 0.348752
vt 0.765927 0.437901
vt 0.764896 0.481411
vt 0.789541 0.447707
vt 0.791328 0.278202
vt 0.788722 0.276483
vt 0.814567 0.507885
vt 0.850497 0.448644
vt 0.822757 0.513386
vt 0.327709 0.631296
vt 0.329601 0.818059
vt 0.789382 0.276175
vt 0.775193 0.285804
vt 0.791063 0.281718
vt 0.778263 0.282131
vt 0.787606 0.276343
vt 0.778903 0.279364
vt 0.515877 0.515284
vt 0.547778 0.489800
vt 0.514810 0.565520
vt 0.522471 0.602382
vt 0.437410 0.481882
vt 0.414297 0.537499
vt 0.234369 0.591919
vt 0.214520 0.510041
vt 0.229396 0.592813
vt 0.805746 0.422192
vt 0.798842 0.449865
vt 0.384938 0.522043
vt 0.398052 0.572472
vt 0.403313 0.467063
vt 0.352144 0.448337
vt 0.345533 0.524975
vt 0.364214 0.545405
vt 0.348237 0.506561
vt 0.861769 0.387414
vt 0.999888 0.271586
vt 0.864525 0.405283
vt 0.848272 0.363164
vt 0.955754 0.228633
vt 0.337965 0.505826
vt 0.341101 0.521364
vt 0.319142 0.474775
vt 0.290796 0.549001
vt 0.831619 0.440747
vt 0.850490 0.424757
vt 0.390709 0.633762
vt 0.764204 0.299482
vt 0.797462 0.295581
vt 0.577542 0.631287
vt 0.391156 0.639312
vt 0.390932 0.631286
vt 0.364588 0.571967
vt 0.984321 0.255825
vt 0.815978 0.426951
vt 0.734165 0.525913
vt 0.758224 0.564403
vt 0.341897 0.525753
vt 0.349852 0.570336
vt 0.336309 0.523949
vt 0.555637 0.582373
vt 0.771048 0.484679
vt 0.235427 0.596837
vt 0.350366 0.575468
vt 0.765946 0.576545
vt 0.549625 0.618074
vt 0.552570 0.631063
vt 0.577989 0.631287
vt 0.592509 0.639316
vt 0.577989 0.639316
vt 0.335084 0.488374
vt 0.356054 0.492077
vt 0.357697 0.571023
vt 0.357542 0.575963
vt 0.409133 0.620212
vt 0.303269 0.555967
vt 0.778832 0.252844
vt 0.761721 0.231123
vt 0.010036 0.286842
vt 0.249610 0.420521
vt 0.234604 0.325176
vt 0.264292 0.123572
vt 0.238405 0.305217
vt 0.219494 0.509147
vt 0.270805 0.532278
vt 0.388605 0.820365
vt 0.577766 0.639313
vt 0.592509 0.631286
vt 0.446171 0.566531
vn 1.0000 0.0000 0.0000
vn 0.6922 0.7217 0.0000
vn 0.5472 0.8370 0.0000
vn 0.1879 0.9822 0.0000
vn 0.0000 1.0000 0.0000
vn 0.8006 0.0000 0.5991
vn 0.5642 0.6362 0.5262
vn 0.0000 0.8112 0.5848
vn 0.1530 0.8016 0.5779
vn 0.4685 0.7166 0.5167
vn -0.0006 0.0000 1.0000
vn 0.3449 0.0450 0.9375
vn 0.3421 0.0000 0.9397
vn -0.0000 0.0000 1.0000
vn -1.0000 0.0000 0.0000
vn 0.0000 0.0000 -1.0000
vn -0.0502 -0.9987 -0.0014
vn 0.0000 0.0039 -1.0000
vn 0.0000 -0.0072 -1.0000
vn 0.0000 -1.0000 0.0000
vn 0.0074 0.0095 -0.9999
vn 1.0000 -0.0001 0.0000
vn -0.0002 -1.0000 0.0059
vn -0.0238 -0.9997 0.0059
vn -0.0357 -0.9975 0.0603
vn -0.0375 -0.9993 0.0037
vn -0.0138 -0.9981 0.0596
vn -0.0278 -0.9996 0.0000
vn 0.0071 0.0000 -1.0000
vn 0.0094 0.0000 -1.0000
vn 0.0067 0.0000 1.0000
vn 0.0278 0.9996 0.0000
vn 0.8006 0.0000 -0.5991
vn 0.5642 0.6362 -0.5262
vn 0.0000 0.8112 -0.5848
vn 0.1530 0.8016 -0.5779
vn 0.4685 0.7166 -0.5167
vn -0.0006 0.0000 -1.0000
vn 0.3881 0.0000 -0.9216
vn 0.3421 0.0000 -0.9397
vn -0.0492 -0.9988 -0.0000
vn 0.0000 0.0039 1.0000
vn 0.0000 -0.0072 1.0000
vn 0.0101 0.0000 0.9999
vn -0.0002 -1.0000 -0.0059
vn -0.0229 -0.9997 -0.0059
vn -0.0363 -0.9975 -0.0604
vn -0.0138 -0.9981 -0.0596
vn 0.0071 0.0000 1.0000
vn 0.0094 0.0000 1.0000
vn 0.0067 0.0000 -1.0000
vn 0.7258 0.0947 0.6813
vn 0.5320 0.6502 0.5424
vn 0.3881 0.0000 0.9216
vn 0.0101 0.0000 -0.9999
vn -0.0952 -0.9900 0.1037
vn -0.0001 -0.9945 0.1044
vn -0.0272 -0.9996 0.0000
vn 0.7258 0.0947 -0.6813
vn 0.5320 0.6502 -0.5424
vn 0.3449 0.0450 -0.9375
vn -0.0502 -0.9987 0.0014
vn 0.0074 0.0095 0.9999
vn -0.0949 -0.9900 -0.1044
vn -0.0001 -0.9945 -0.1051
vn -0.0375 -0.9993 -0.0037
usemtl Material
s off
f 77/1/1 3/2/1 2/3/1
f 80/4/2 4/5/2 3/2/2
f 82/6/3 5/7/3 4/5/3
f 84/8/4 6/9/4 5/7/4
f 86/10/5 88/11/5 48/12/5
f 10/13/1 3/2/1 8/14/1
f 1/15/1 10/13/1 9/16/1
f 8/14/6 13/17/6 10/13/6
f 10/13/6 12/18/6 9/16/6
f 7/19/5 16/20/5 6/9/5
f 5/7/4 16/20/4 15/21/4
f 5/7/3 14/22/3 4/5/3
f 14/22/2 3/2/2 4/5/2
f 11/23/7 8/14/7 14/22/7
f 17/24/8 19/25/8 16/20/8
f 15/21/9 19/25/9 18/26/9
f 18/26/10 14/22/10 15/21/10
f 18/26/11 23/27/11 22/28/11
f 11/23/12 22/28/12 13/29/12
f 22/28/11 25/30/11 24/31/11
f 13/29/13 24/31/13 12/32/13
f 19/25/14 21/33/14 23/27/14
f 23/27/14 26/34/14 25/30/14
f 25/30/14 32/35/14 31/36/14
f 24/31/11 31/36/11 30/37/11
f 1/38/1 109/39/1 76/40/1
f 9/16/1 27/41/1 1/38/1
f 12/32/13 30/37/13 29/42/13
f 9/16/6 29/42/6 28/43/6
f 36/44/15 118/45/15 37/46/15
f 37/47/16 72/48/16 52/49/16
f 120/50/17 57/51/17 141/52/17
f 116/53/5 1/15/5 76/40/5
f 35/54/15 36/44/15 38/55/15
f 78/56/5 116/53/5 76/40/5
f 39/57/15 20/58/15 17/24/15
f 21/33/15 40/59/15 26/34/15
f 26/34/15 41/60/15 32/35/15
f 42/61/15 17/24/15 7/19/15
f 40/59/15 42/61/15 43/62/15
f 41/60/15 43/62/15 44/63/15
f 118/64/15 69/65/15 37/66/15
f 28/43/6 64/67/6 63/68/6
f 42/61/15 46/69/15 43/62/15
f 44/63/15 46/69/15 47/70/15
f 45/71/15 7/19/15 48/12/15
f 49/72/15 48/12/15 88/11/15
f 46/69/15 51/73/15 47/70/15
f 45/71/15 50/74/15 46/69/15
f 118/75/15 68/76/15 34/77/15
f 28/43/1 62/78/1 27/41/1
f 27/41/1 152/79/1 109/39/1
f 49/72/18 55/80/18 50/74/18
f 50/74/19 56/81/19 51/73/19
f 135/82/20 54/83/20 49/72/20
f 54/83/1 58/84/1 55/80/1
f 56/81/1 58/84/1 59/85/1
f 34/77/15 69/86/15 37/87/15
f 59/88/21 38/89/21 37/90/21
f 2/3/20 120/91/20 77/1/20
f 1/15/16 60/92/16 2/3/16
f 61/93/15 35/54/15 60/92/15
f 118/75/5 37/87/5 34/77/5
f 51/73/22 41/94/22 47/70/22
f 62/78/20 159/95/20 152/79/20
f 63/68/23 64/67/23 69/86/23
f 63/68/20 68/76/20 62/78/20
f 64/67/24 72/48/24 69/86/24
f 72/48/25 65/96/25 73/97/25
f 71/98/26 74/99/26 70/100/26
f 67/101/27 73/97/27 65/96/27
f 69/65/28 74/99/28 75/102/28
f 41/60/15 67/101/15 32/35/15
f 30/37/11 65/96/11 66/103/11
f 29/42/13 66/103/13 64/67/13
f 37/104/29 74/99/29 59/105/29
f 52/49/16 73/97/16 53/106/16
f 53/106/30 70/107/30 41/108/30
f 56/81/16 71/98/16 51/73/16
f 31/36/14 67/101/14 65/96/14
f 167/109/15 56/81/15 150/110/15
f 51/73/15 70/100/15 41/94/15
f 59/105/31 70/100/31 74/99/31
f 56/81/32 59/85/32 37/111/32
f 81/112/1 77/1/1 79/113/1
f 83/114/2 80/4/2 81/112/2
f 85/115/3 82/6/3 83/114/3
f 87/116/4 84/8/4 85/115/4
f 134/117/5 88/11/5 86/10/5
f 81/112/1 92/118/1 90/119/1
f 78/120/1 92/118/1 79/113/1
f 95/121/33 90/119/33 92/118/33
f 94/122/33 92/118/33 91/123/33
f 98/124/5 89/125/5 87/116/5
f 85/115/4 98/124/4 87/116/4
f 96/126/3 85/115/3 83/114/3
f 81/112/2 96/126/2 83/114/2
f 93/127/34 96/126/34 90/119/34
f 101/128/35 99/129/35 98/124/35
f 97/130/36 101/128/36 98/124/36
f 96/126/37 100/131/37 97/130/37
f 100/131/38 105/132/38 101/128/38
f 93/127/39 104/133/39 100/131/39
f 104/133/38 107/134/38 105/132/38
f 95/135/40 106/136/40 104/133/40
f 103/137/16 101/128/16 105/132/16
f 108/138/16 105/132/16 107/134/16
f 107/134/16 115/139/16 108/138/16
f 106/136/38 114/140/38 107/134/38
f 78/56/1 109/39/1 110/141/1
f 110/141/1 91/123/1 78/56/1
f 94/142/40 113/143/40 106/136/40
f 91/123/33 112/144/33 94/122/33
f 118/45/15 122/145/15 123/146/15
f 163/147/14 123/148/14 139/149/14
f 120/50/41 145/150/41 124/151/41
f 112/152/1 122/145/1 123/146/1
f 121/153/15 122/145/15 117/154/15
f 124/155/1 94/156/1 95/157/1
f 125/158/15 102/159/15 103/137/15
f 126/160/15 103/137/15 108/138/15
f 127/161/15 108/138/15 115/139/15
f 128/162/15 99/129/15 125/158/15
f 126/160/15 128/162/15 125/158/15
f 127/161/15 129/163/15 126/160/15
f 160/164/15 118/165/15 123/166/15
f 111/167/33 154/168/33 112/144/33
f 132/169/15 128/162/15 129/163/15
f 130/170/15 132/169/15 129/163/15
f 89/125/15 131/171/15 134/117/15
f 134/117/15 131/171/15 136/172/15
f 138/173/15 132/169/15 133/174/15
f 137/175/15 131/171/15 132/169/15
f 158/176/15 118/177/15 119/178/15
f 151/179/1 111/167/1 110/141/1
f 152/180/1 110/141/1 109/39/1
f 143/181/42 136/172/42 137/175/42
f 144/182/43 137/175/43 138/173/43
f 142/183/20 135/82/20 136/172/20
f 146/184/1 142/183/1 143/181/1
f 144/182/1 146/184/1 143/181/1
f 160/185/15 119/178/15 123/186/15
f 147/187/44 124/151/44 145/150/44
f 79/113/20 120/91/20 148/188/20
f 148/188/14 78/120/14 79/113/14
f 121/153/15 149/189/15 148/188/15
f 118/177/20 119/178/20 123/186/20
f 118/190/16 167/191/16 150/192/16
f 138/173/1 133/174/1 127/193/1
f 159/194/20 151/179/20 152/180/20
f 153/195/45 160/185/45 154/168/45
f 153/195/20 158/176/20 160/185/20
f 163/147/46 154/168/46 160/185/46
f 155/196/47 163/147/47 164/197/47
f 162/198/20 165/199/20 166/200/20
f 164/197/48 157/201/48 155/196/48
f 166/200/28 165/199/28 160/164/28
f 157/201/15 127/161/15 115/139/15
f 113/143/38 155/196/38 114/140/38
f 112/144/40 156/202/40 113/143/40
f 165/199/49 123/203/49 147/204/49
f 164/197/14 139/149/14 140/205/14
f 161/206/50 140/205/50 127/207/50
f 162/198/14 144/182/14 138/173/14
f 114/140/16 157/201/16 115/139/16
f 159/208/14 109/209/14 118/210/14
f 144/182/15 167/211/15 150/212/15
f 161/213/15 138/173/15 127/193/15
f 147/204/51 161/213/51 127/214/51
f 123/215/32 147/216/32 144/182/32
f 77/1/1 80/4/1 3/2/1
f 80/4/2 82/6/2 4/5/2
f 82/6/3 84/8/3 5/7/3
f 84/8/4 86/10/4 6/9/4
f 7/19/5 6/9/5 48/12/5
f 6/9/5 86/10/5 48/12/5
f 10/13/1 2/3/1 3/2/1
f 1/15/1 2/3/1 10/13/1
f 8/14/52 11/23/52 13/17/52
f 10/13/6 13/17/6 12/18/6
f 7/19/5 17/24/5 16/20/5
f 5/7/4 6/9/4 16/20/4
f 5/7/3 15/21/3 14/22/3
f 14/22/2 8/14/2 3/2/2
f 17/24/8 20/58/8 19/25/8
f 15/21/9 16/20/9 19/25/9
f 18/26/53 11/23/53 14/22/53
f 18/26/11 19/25/11 23/27/11
f 11/23/54 18/26/54 22/28/54
f 22/28/11 23/27/11 25/30/11
f 13/29/13 22/28/13 24/31/13
f 19/25/14 20/58/14 21/33/14
f 23/27/14 21/33/14 26/34/14
f 25/30/14 26/34/14 32/35/14
f 24/31/11 25/30/11 31/36/11
f 1/38/1 27/41/1 109/39/1
f 9/16/1 28/43/1 27/41/1
f 12/32/13 24/31/13 30/37/13
f 9/16/6 12/18/6 29/42/6
f 36/44/15 116/217/15 118/45/15
f 37/47/16 69/86/16 72/48/16
f 120/50/41 38/89/41 57/51/41
f 116/53/5 61/93/5 1/15/5
f 35/54/15 33/218/15 36/44/15
f 78/56/5 149/189/5 116/53/5
f 39/57/15 21/33/15 20/58/15
f 21/33/15 39/57/15 40/59/15
f 26/34/15 40/59/15 41/60/15
f 42/61/15 39/57/15 17/24/15
f 40/59/15 39/57/15 42/61/15
f 41/60/15 40/59/15 43/62/15
f 118/64/15 159/219/15 69/65/15
f 28/43/6 29/42/6 64/67/6
f 42/61/15 45/71/15 46/69/15
f 44/63/15 43/62/15 46/69/15
f 45/71/15 42/61/15 7/19/15
f 88/11/15 135/82/15 49/72/15
f 49/72/15 45/71/15 48/12/15
f 46/69/15 50/74/15 51/73/15
f 45/71/15 49/72/15 50/74/15
f 118/75/15 159/95/15 68/76/15
f 28/43/1 63/68/1 62/78/1
f 27/41/1 62/78/1 152/79/1
f 49/72/18 54/83/18 55/80/18
f 50/74/19 55/80/19 56/81/19
f 135/82/20 141/220/20 54/83/20
f 54/83/1 57/221/1 58/84/1
f 56/81/1 55/80/1 58/84/1
f 34/77/15 68/76/15 69/86/15
f 59/88/55 57/51/55 38/89/55
f 2/3/20 60/92/20 120/91/20
f 1/15/16 61/93/16 60/92/16
f 61/93/15 33/218/15 35/54/15
f 62/78/20 68/76/20 159/95/20
f 63/68/20 69/86/20 68/76/20
f 64/67/56 66/103/56 72/48/56
f 72/48/57 66/103/57 65/96/57
f 71/98/20 75/102/20 74/99/20
f 67/101/58 70/107/58 73/97/58
f 167/109/28 159/219/28 75/102/28
f 159/219/28 69/65/28 75/102/28
f 41/60/15 70/107/15 67/101/15
f 30/37/11 31/36/11 65/96/11
f 29/42/13 30/37/13 66/103/13
f 37/104/29 69/65/29 74/99/29
f 52/49/16 72/48/16 73/97/16
f 53/106/30 73/97/30 70/107/30
f 56/81/16 75/102/16 71/98/16
f 31/36/14 32/35/14 67/101/14
f 167/109/15 75/102/15 56/81/15
f 51/73/15 71/98/15 70/100/15
f 59/105/31 41/222/31 70/100/31
f 37/111/32 118/223/32 56/81/32
f 118/223/32 150/110/32 56/81/32
f 81/112/1 80/4/1 77/1/1
f 83/114/2 82/6/2 80/4/2
f 85/115/3 84/8/3 82/6/3
f 87/116/4 86/10/4 84/8/4
f 86/10/5 87/116/5 134/117/5
f 87/116/5 89/125/5 134/117/5
f 81/112/1 79/113/1 92/118/1
f 78/120/1 91/123/1 92/118/1
f 95/121/59 93/127/59 90/119/59
f 94/122/33 95/121/33 92/118/33
f 98/124/5 99/129/5 89/125/5
f 85/115/4 97/130/4 98/124/4
f 96/126/3 97/130/3 85/115/3
f 81/112/2 90/119/2 96/126/2
f 101/128/35 102/159/35 99/129/35
f 97/130/36 100/131/36 101/128/36
f 96/126/60 93/127/60 100/131/60
f 100/131/38 104/133/38 105/132/38
f 93/127/61 95/135/61 104/133/61
f 104/133/38 106/136/38 107/134/38
f 95/135/40 94/142/40 106/136/40
f 103/137/16 102/159/16 101/128/16
f 108/138/16 103/137/16 105/132/16
f 107/134/16 114/140/16 115/139/16
f 106/136/38 113/143/38 114/140/38
f 78/56/1 76/40/1 109/39/1
f 110/141/1 111/167/1 91/123/1
f 94/142/40 112/144/40 113/143/40
f 91/123/33 111/167/33 112/144/33
f 118/45/15 116/217/15 122/145/15
f 163/147/14 160/185/14 123/148/14
f 120/50/62 141/52/62 145/150/62
f 112/152/1 94/156/1 122/145/1
f 121/153/15 124/155/15 122/145/15
f 124/155/1 122/145/1 94/156/1
f 125/158/15 99/129/15 102/159/15
f 126/160/15 125/158/15 103/137/15
f 127/161/15 126/160/15 108/138/15
f 128/162/15 89/125/15 99/129/15
f 126/160/15 129/163/15 128/162/15
f 127/161/15 130/170/15 129/163/15
f 160/164/15 159/224/15 118/165/15
f 111/167/33 153/195/33 154/168/33
f 132/169/15 131/171/15 128/162/15
f 130/170/15 133/174/15 132/169/15
f 89/125/15 128/162/15 131/171/15
f 136/172/15 135/82/15 88/11/15
f 88/11/15 134/117/15 136/172/15
f 138/173/15 137/175/15 132/169/15
f 137/175/15 136/172/15 131/171/15
f 158/176/15 159/194/15 118/177/15
f 151/179/1 153/195/1 111/167/1
f 152/180/1 151/179/1 110/141/1
f 143/181/42 142/183/42 136/172/42
f 144/182/43 143/181/43 137/175/43
f 142/183/20 141/220/20 135/82/20
f 146/184/1 145/225/1 142/183/1
f 144/182/1 147/216/1 146/184/1
f 160/185/15 158/176/15 119/178/15
f 147/187/63 123/226/63 124/151/63
f 79/113/20 77/1/20 120/91/20
f 148/188/14 149/189/14 78/120/14
f 121/153/15 117/154/15 149/189/15
f 118/190/16 159/227/16 167/191/16
f 159/194/20 158/176/20 151/179/20
f 153/195/20 151/179/20 158/176/20
f 163/147/64 156/202/64 154/168/64
f 155/196/65 156/202/65 163/147/65
f 162/198/66 161/213/66 165/199/66
f 164/197/58 161/206/58 157/201/58
f 160/164/28 159/224/28 166/200/28
f 159/224/28 167/211/28 166/200/28
f 157/201/15 161/206/15 127/161/15
f 113/143/38 156/202/38 155/196/38
f 112/144/40 154/168/40 156/202/40
f 165/199/49 160/164/49 123/203/49
f 164/197/14 163/147/14 139/149/14
f 161/206/50 164/197/50 140/205/50
f 162/198/14 166/200/14 144/182/14
f 114/140/16 155/196/16 157/201/16
f 159/208/14 152/228/14 109/209/14
f 144/182/15 166/200/15 167/211/15
f 161/213/15 162/198/15 138/173/15
f 147/204/51 165/199/51 161/213/51
f 150/212/32 118/229/32 144/182/32
f 118/229/32 123/215/32 144/182/32
l 9 36
l 29 37
l 10 38
l 91 122
l 92 124
